STARTFONT 2.1
FONT -Monotype-Century Schoolbook-Regular-I-Normal--33-240-100-100-P-171-iso8859-2
SIZE 24 100 100
FONTBOUNDINGBOX 39 40 -5 -7

STARTPROPERTIES 24
FOUNDRY "Monotype"
FAMILY_NAME "Century Schoolbook"
WEIGHT_NAME "Regular"
SLANT "I"
SETWIDTH_NAME "Normal"
ADD_STYLE_NAME ""
PIXEL_SIZE 33
POINT_SIZE 240
RESOLUTION_X 100
RESOLUTION_Y 100
SPACING "P"
AVERAGE_WIDTH 171
CHARSET_REGISTRY "iso8859"
CHARSET_ENCODING "2"
FACE_NAME "Century Schoolbook Italic ISO Latin2"
_DEC_DEVICE_FONTNAMES "PS=centuryschoolbook-it-lat2"
COPYRIGHT "Copyright (c) 1993 Monotype Typography Ltd."
CAP_HEIGHT 28
X_HEIGHT 18
WEIGHT 10
QUAD_WIDTH 19
DEFAULT_CHAR 160
FONT_DESCENT 7
FONT_ASCENT 33
ENDPROPERTIES

CHARS 191

STARTCHAR space
ENCODING 32
SWIDTH 278 0
DWIDTH 9 0
BBX 0 0 0 0
BITMAP
ENDCHAR

STARTCHAR exclam
ENCODING 33
SWIDTH 333 0
DWIDTH 11 0
BBX 10 25 2 0
BITMAP
0180
03C0
03C0
0380
0380
0780
0700
0700
0600
0600
0400
0C00
0C00
0800
0800
1800
1000
1000
0000
0000
0000
6000
F000
F000
6000
ENDCHAR

STARTCHAR quotedbl
ENCODING 34
SWIDTH 400 0
DWIDTH 13 0
BBX 10 10 5 13
BITMAP
30C0
71C0
71C0
71C0
6180
6180
C300
C300
8200
8200
ENDCHAR

STARTCHAR numbersign
ENCODING 35
SWIDTH 606 0
DWIDTH 20 0
BBX 18 24 3 0
BITMAP
030300
030300
030700
030600
060600
060600
060600
FFFFC0
F7FFC0
0C0C00
0C0C00
0C0C00
0C1800
0C1800
181800
FFFFC0
FFDFC0
183000
183000
303000
303000
303000
306000
706000
ENDCHAR

STARTCHAR dollar
ENCODING 36
SWIDTH 556 0
DWIDTH 18 0
BBX 16 28 3 -4
BITMAP
0018
00F8
039E
0633
0423
0C27
0C27
0C46
0E40
0F40
0780
03C0
01E0
01F0
0178
0138
2138
7218
F218
E218
C218
4430
6460
1FC0
0C00
0800
0800
0800
ENDCHAR

STARTCHAR percent
ENCODING 37
SWIDTH 833 0
DWIDTH 27 0
BBX 23 23 4 0
BITMAP
0E0030
110020
318040
6180C0
618080
E18100
C38300
C30600
C30400
C60C00
441800
381038
002044
0060C6
004186
008186
018386
03030E
02030C
04030C
0C0318
080110
1000E0
ENDCHAR

STARTCHAR ampersand
ENCODING 38
SWIDTH 852 0
DWIDTH 28 0
BBX 25 24 2 0
BITMAP
000F8000
0038C000
00706000
00606000
00E06000
00E06000
00E0C000
00E18000
00F70000
00FC0000
01F00000
0770FF80
1C703E00
38781800
78381800
70381000
F03C2000
F01C4000
F01EC000
F00F8100
78070200
7C1FC600
3FF3FC00
07C1F000
ENDCHAR

STARTCHAR quoteright
ENCODING 39
SWIDTH 204 0
DWIDTH 7 0
BBX 6 8 3 16
BITMAP
3C
3C
3C
0C
08
18
30
C0
ENDCHAR

STARTCHAR parenleft
ENCODING 40
SWIDTH 333 0
DWIDTH 11 0
BBX 13 30 2 -6
BITMAP
0038
0060
00C0
0180
0300
0600
0E00
1C00
1C00
3800
3800
7000
7000
7000
E000
E000
E000
E000
E000
E000
E000
E000
6000
6000
7000
3000
3000
1000
1800
0C00
ENDCHAR

STARTCHAR parenright
ENCODING 41
SWIDTH 333 0
DWIDTH 11 0
BBX 13 30 -2 -6
BITMAP
0180
00C0
0060
0060
0060
0030
0030
0030
0038
0038
0038
0038
0038
0038
0038
0038
0070
0070
0070
00E0
00E0
01C0
01C0
0380
0300
0600
0C00
1800
3000
E000
ENDCHAR

STARTCHAR asterisk
ENCODING 42
SWIDTH 500 0
DWIDTH 17 0
BBX 13 13 6 12
BITMAP
0700
0700
0700
0700
E238
F278
FEF8
0200
0D00
1DC0
38E0
38E0
3040
ENDCHAR

STARTCHAR plus
ENCODING 43
SWIDTH 606 0
DWIDTH 20 0
BBX 18 18 3 2
BITMAP
00C000
00C000
00C000
00C000
00C000
00C000
00C000
00C000
FFFFC0
FFFFC0
00C000
00C000
00C000
00C000
00C000
00C000
00C000
00C000
ENDCHAR

STARTCHAR comma
ENCODING 44
SWIDTH 278 0
DWIDTH 9 0
BBX 6 8 0 -5
BITMAP
3C
3C
3C
0C
08
18
F0
40
ENDCHAR

STARTCHAR minus
ENCODING 45
SWIDTH 606 0
DWIDTH 20 0
BBX 17 2 3 10
BITMAP
FFFF80
FFFF80
ENDCHAR

STARTCHAR period
ENCODING 46
SWIDTH 278 0
DWIDTH 9 0
BBX 4 4 2 0
BITMAP
60
F0
F0
60
ENDCHAR

STARTCHAR slash
ENCODING 47
SWIDTH 606 0
DWIDTH 20 0
BBX 14 23 4 0
BITMAP
000C
001C
0018
0030
0030
0060
0060
00C0
00C0
0180
0180
0300
0300
0600
0E00
0C00
1C00
1800
3800
3000
7000
6000
C000
ENDCHAR

STARTCHAR zero
ENCODING 48
SWIDTH 556 0
DWIDTH 18 0
BBX 15 23 3 0
BITMAP
01F0
030C
060C
0C06
1C06
1C06
3806
380E
780E
700E
700E
F01E
E01E
E01C
E01C
E038
C038
C030
C070
C060
60C0
7180
1E00
ENDCHAR

STARTCHAR one
ENCODING 49
SWIDTH 556 0
DWIDTH 18 0
BBX 13 23 3 0
BITMAP
0018
0070
07F0
07F0
0060
00E0
00E0
00E0
00C0
01C0
01C0
01C0
0180
0380
0380
0380
0300
0700
0700
0600
0E00
1F00
FFE0
ENDCHAR

STARTCHAR two
ENCODING 50
SWIDTH 556 0
DWIDTH 18 0
BBX 18 23 1 0
BITMAP
00FE00
038F00
060380
0401C0
0C01C0
0E01C0
0F81C0
0783C0
070380
000780
000F00
001C00
003800
00E000
01C000
030000
060200
080200
100600
200C00
7FFC00
FFFC00
FFF800
ENDCHAR

STARTCHAR three
ENCODING 51
SWIDTH 556 0
DWIDTH 18 0
BBX 17 23 2 0
BITMAP
00FC00
030E00
060700
060380
070380
070380
030380
000780
000700
000E00
003800
07C000
007000
001800
001C00
601C00
F01C00
F01C00
F03C00
C03800
407800
31E000
1FC000
ENDCHAR

STARTCHAR four
ENCODING 52
SWIDTH 556 0
DWIDTH 18 0
BBX 17 23 2 0
BITMAP
000180
000300
000700
000F00
001F00
003600
006E00
00EE00
01CC00
039C00
071C00
061C00
0C1800
183800
303800
403000
FFFE00
007000
007000
006000
00E000
01E000
07FC00
ENDCHAR

STARTCHAR five
ENCODING 53
SWIDTH 556 0
DWIDTH 18 0
BBX 17 23 3 0
BITMAP
010180
03FF00
03FC00
02F000
060000
040000
040000
0C0000
080000
0BE000
1C7800
301800
101C00
001C00
001C00
001C00
703C00
F03C00
F03800
E07000
C0F000
61C000
3F0000
ENDCHAR

STARTCHAR six
ENCODING 54
SWIDTH 556 0
DWIDTH 18 0
BBX 17 23 3 0
BITMAP
007E00
01E380
038780
070780
0E0780
1C0300
1C0000
3C0000
380000
79E000
73F000
7C3800
F81C00
F01C00
F01C00
F01C00
E03C00
E03800
E03800
607000
706000
31C000
1F0000
ENDCHAR

STARTCHAR seven
ENCODING 55
SWIDTH 556 0
DWIDTH 18 0
BBX 16 24 5 -1
BITMAP
1000
3FFF
3FFE
380C
6018
6030
4020
C060
00C0
0180
0180
0300
0700
0600
0E00
0C00
1C00
1C00
3C00
3800
3800
7800
7800
3000
ENDCHAR

STARTCHAR eight
ENCODING 56
SWIDTH 556 0
DWIDTH 18 0
BBX 17 23 2 0
BITMAP
007E00
018700
030380
060180
060180
060180
070180
070300
078600
03DC00
00F000
03F000
0E7800
383C00
701C00
600E00
E00E00
C00E00
C00C00
E00C00
601800
387000
0FC000
ENDCHAR

STARTCHAR nine
ENCODING 57
SWIDTH 556 0
DWIDTH 18 0
BBX 17 23 2 0
BITMAP
007C00
01C600
030300
070300
0E0380
1E0380
1E0380
1C0380
1C0780
1C0780
1C0F80
0E1F00
07EF00
038F00
000E00
001E00
001C00
603C00
F03800
F07000
E0E000
638000
3E0000
ENDCHAR

STARTCHAR colon
ENCODING 58
SWIDTH 278 0
DWIDTH 9 0
BBX 7 16 1 0
BITMAP
0C
1E
1E
0C
00
00
00
00
00
00
00
00
60
F0
F0
60
ENDCHAR

STARTCHAR semicolon
ENCODING 59
SWIDTH 278 0
DWIDTH 9 0
BBX 10 21 -1 -5
BITMAP
0180
03C0
03C0
0180
0000
0000
0000
0000
0000
0000
0000
0000
1800
3C00
3C00
3C00
0C00
1800
3000
E000
4000
ENDCHAR

STARTCHAR less
ENCODING 60
SWIDTH 606 0
DWIDTH 20 0
BBX 17 17 3 3
BITMAP
000080
000180
000F80
003E00
00F800
07E000
1F0000
FC0000
E00000
F00000
7E0000
0F8000
03F000
007C00
001F00
000780
000080
ENDCHAR

STARTCHAR equal
ENCODING 61
SWIDTH 606 0
DWIDTH 20 0
BBX 17 10 3 6
BITMAP
FFFF80
FFFF80
000000
000000
000000
000000
000000
000000
FFFF80
FFFF80
ENDCHAR

STARTCHAR greater
ENCODING 62
SWIDTH 606 0
DWIDTH 20 0
BBX 17 17 3 3
BITMAP
800000
C00000
F80000
3E0000
0F8000
03F000
007C00
001F80
000380
000780
003F00
00F800
03E000
1F8000
7C0000
F00000
800000
ENDCHAR

STARTCHAR question
ENCODING 63
SWIDTH 444 0
DWIDTH 15 0
BBX 10 24 4 0
BITMAP
1F00
3180
60C0
C0C0
80C0
81C0
8380
0780
0F00
1C00
3800
7000
6000
4200
4200
6400
3800
0000
0000
0000
6000
F000
F000
6000
ENDCHAR

STARTCHAR at
ENCODING 64
SWIDTH 747 0
DWIDTH 25 0
BBX 23 25 3 -1
BITMAP
007F00
0180C0
060020
080010
100008
300008
601CC4
402384
40C184
C1C184
C18104
830304
830304
860708
860608
860A10
C71610
C7E662
438786
600004
300008
100010
0C0060
0301C0
00FE00
ENDCHAR

STARTCHAR A
ENCODING 65
SWIDTH 704 0
DWIDTH 23 0
BBX 24 24 -1 0
BITMAP
0000C0
0000C0
0001C0
0003C0
0003C0
0006E0
000DE0
000DE0
0018E0
0010E0
0030E0
0060E0
0040F0
00C0F0
0180F0
01FFF0
030070
020070
060070
0C0070
080078
180078
7C0078
FF03FF
ENDCHAR

STARTCHAR B
ENCODING 66
SWIDTH 722 0
DWIDTH 24 0
BBX 24 24 0 0
BITMAP
07FFF8
00783C
00700E
00700F
00F00F
00F00F
00E00F
00E00E
01E01E
01C03C
01C0F0
03FFC0
03C070
03C038
03801C
07801E
07801E
07801E
07001E
0F003C
0F003C
0F0078
1F01F0
FFFF80
ENDCHAR

STARTCHAR C
ENCODING 67
SWIDTH 722 0
DWIDTH 24 0
BBX 22 24 3 0
BITMAP
003F00
01E0CC
03806C
070038
0E0038
1E0018
1C0018
3C0018
780010
780000
780000
F00000
F00000
F00000
F00000
F00000
F00000
700020
700060
780040
380080
1C0180
0F0E00
03F800
ENDCHAR

STARTCHAR D
ENCODING 68
SWIDTH 778 0
DWIDTH 26 0
BBX 26 24 0 0
BITMAP
07FFF000
00781C00
00700E00
00700700
00F00380
00F00380
00E003C0
00E003C0
01E003C0
01E003C0
01C003C0
03C003C0
03C003C0
03800780
03800780
07800780
07800F00
07000F00
07001E00
0F001C00
0F003C00
0E00F000
1F03E000
FFFF8000
ENDCHAR

STARTCHAR E
ENCODING 69
SWIDTH 722 0
DWIDTH 24 0
BBX 24 24 1 0
BITMAP
0FFFFF
00F01E
00F00E
00E006
00E006
01E004
01C004
01C084
03C180
03C380
038700
03FF00
078F00
078700
070600
070200
0F060C
0F0418
0E0018
0E0030
1E0070
1E00F0
3E03F0
FFFFE0
ENDCHAR

STARTCHAR F
ENCODING 70
SWIDTH 667 0
DWIDTH 22 0
BBX 25 24 0 0
BITMAP
07FFFF80
00780F80
00700300
00700300
00F00300
00E00100
00E02100
01E06300
01E04000
01C0C000
01C1C000
03FFC000
03C38000
03818000
03818000
07818000
07810000
07010000
07000000
0F000000
0F000000
0E000000
1F000000
FFE00000
ENDCHAR

STARTCHAR G
ENCODING 71
SWIDTH 778 0
DWIDTH 26 0
BBX 23 24 2 0
BITMAP
003F80
00E0E6
01C03C
07001C
0F001C
0E000C
1C000C
3C0008
3C0008
780000
780000
780000
F00000
F003FE
F000F8
F00070
F000F0
7000E0
7000E0
7801E0
3801E0
1C0340
0E0E40
03F840
ENDCHAR

STARTCHAR H
ENCODING 72
SWIDTH 833 0
DWIDTH 27 0
BBX 29 24 1 0
BITMAP
07FE1FF8
00F003C0
00F003C0
00E00380
00E00780
01E00780
01E00700
01C00700
03C00F00
03C00F00
03C00E00
03FFFE00
07FFFE00
07801E00
07001C00
07001C00
0F003C00
0F003C00
0E003800
0E003800
1E007800
1E007800
3E00F800
FFC7FF00
ENDCHAR

STARTCHAR I
ENCODING 73
SWIDTH 407 0
DWIDTH 13 0
BBX 16 24 0 0
BITMAP
07FF
0078
0078
0070
0070
00F0
00F0
00E0
00E0
01E0
01E0
01C0
01C0
03C0
0380
0380
0380
0780
0700
0700
0F00
0F00
1F00
FFE0
ENDCHAR

STARTCHAR J
ENCODING 74
SWIDTH 611 0
DWIDTH 20 0
BBX 22 24 1 0
BITMAP
001FFC
0001E0
0001E0
0001C0
0001C0
0003C0
000380
000380
000780
000780
000700
000700
000F00
000F00
3C0E00
7C0E00
FC1E00
DC1C00
801C00
803C00
803800
407000
71F000
1FC000
ENDCHAR

STARTCHAR K
ENCODING 75
SWIDTH 741 0
DWIDTH 24 0
BBX 29 24 -1 0
BITMAP
03FF1FF8
007807C0
00780300
00700600
00700C00
00F03800
00F07000
00E0C000
00E18000
01E30000
01C70000
01DF8000
03D78000
03E38000
03C3C000
0381C000
0781E000
0780E000
0700F000
07007000
0F007800
0F003800
1F007C00
FFE3FF80
ENDCHAR

STARTCHAR L
ENCODING 76
SWIDTH 667 0
DWIDTH 22 0
BBX 20 24 1 0
BITMAP
0FFF00
00F000
00E000
00E000
01E000
01E000
01C000
01C000
03C000
03C000
038000
038000
078000
078000
070000
070000
0F0010
0F0030
0E0030
1E0060
1E00E0
1C01E0
3E07E0
FFFFC0
ENDCHAR

STARTCHAR M
ENCODING 77
SWIDTH 944 0
DWIDTH 31 0
BBX 34 24 0 0
BITMAP
07FC001FC0
007C002E00
006C007E00
005C006E00
00DC00DC00
00DC009C00
009E01BC00
009E033C00
019E023800
018E063800
010E0C7800
010E0C7800
030E187000
030E107000
020E30F000
060E60E000
060E60E000
060FC0E000
040F81E000
0C0781C000
0C0701C000
1C0701C000
3E0603C000
FF841FF800
ENDCHAR

STARTCHAR N
ENCODING 78
SWIDTH 815 0
DWIDTH 27 0
BBX 30 24 0 0
BITMAP
07F807FC
00F801F0
007C0060
005C00C0
00DE00C0
00DE00C0
008E0080
008F0080
01870180
01878180
01038100
0303C300
0303C300
0301E300
0201E200
0600E600
0600F600
06007400
04007C00
0C003C00
0C003C00
1C003800
3E001800
FFC01800
ENDCHAR

STARTCHAR O
ENCODING 79
SWIDTH 778 0
DWIDTH 26 0
BBX 23 24 3 0
BITMAP
003F80
00F0E0
03C030
070038
0F001C
1E001C
1C001E
3C001E
38001E
78001E
78001E
70001E
F0003C
F0003C
F0003C
F00038
F00078
700070
7000F0
7001E0
3801C0
180780
0E1E00
03F800
ENDCHAR

STARTCHAR P
ENCODING 80
SWIDTH 667 0
DWIDTH 22 0
BBX 24 24 0 0
BITMAP
07FFF0
00783C
00700E
00F00E
00F00F
00E00F
00E00F
01E00F
01E01E
01C01E
01C03C
03C0F0
03FFC0
038000
038000
078000
078000
070000
0F0000
0F0000
0F0000
0E0000
1F0000
FFE000
ENDCHAR

STARTCHAR Q
ENCODING 81
SWIDTH 778 0
DWIDTH 26 0
BBX 23 30 3 -6
BITMAP
003F80
00E0E0
03C030
070018
0F001C
1E001C
1C001E
3C001E
3C001E
78001E
78001E
F8001E
F0001C
F0003C
F0003C
F1F078
F31878
760C70
740CE0
740EE0
3C0FC0
1C0F00
0E1E00
03FE00
000E00
000E00
000E10
000F20
000FE0
000780
ENDCHAR

STARTCHAR R
ENCODING 82
SWIDTH 741 0
DWIDTH 24 0
BBX 24 24 0 0
BITMAP
07FFF0
00F83C
00700E
00F00F
00F00F
00E00F
00E00F
01E00F
01C01E
01C03C
03C0F0
03FF80
038380
0381C0
0780E0
0780E0
0700E0
0700E0
0F01E0
0F01E2
0E01E2
0E01E4
1E00F8
FFE070
ENDCHAR

STARTCHAR S
ENCODING 83
SWIDTH 667 0
DWIDTH 22 0
BBX 21 25 2 -1
BITMAP
007E00
01C398
0300F8
060070
060070
0E0030
0E0030
0E0030
0F0020
07C000
07F000
03FE00
01FF80
003FC0
000FC0
2003E0
2001E0
6000E0
6000E0
7000E0
7000C0
7801C0
EC0380
C70E00
01F800
ENDCHAR

STARTCHAR T
ENCODING 84
SWIDTH 685 0
DWIDTH 23 0
BBX 23 24 3 0
BITMAP
1FFFFE
1E3C3C
383C1C
303C0C
60380C
60380C
407808
C07808
807008
007000
00F000
00F000
00E000
00E000
01E000
01C000
01C000
03C000
03C000
038000
038000
078000
078000
7FF800
ENDCHAR

STARTCHAR U
ENCODING 85
SWIDTH 815 0
DWIDTH 27 0
BBX 25 24 5 0
BITMAP
FFE0FF80
0E001E00
1E001C00
1E000800
1C000800
1C001800
3C001800
3C001000
38001000
38003000
78003000
78002000
70002000
F0006000
F0004000
E0004000
E0004000
E000C000
E0008000
E0018000
F0030000
78060000
3E1C0000
0FF00000
ENDCHAR

STARTCHAR V
ENCODING 86
SWIDTH 704 0
DWIDTH 23 0
BBX 25 24 3 0
BITMAP
FFC0FF80
1E001E00
1E001C00
1E001800
1E001000
0E003000
0E006000
0E004000
0F00C000
0F008000
0F018000
07030000
07020000
07060000
070C0000
07880000
07980000
03900000
03B00000
03E00000
03C00000
03C00000
03800000
01800000
ENDCHAR

STARTCHAR W
ENCODING 87
SWIDTH 926 0
DWIDTH 31 0
BBX 30 24 4 0
BITMAP
FF3FF0FC
3C078038
38038030
38038020
3C038060
3C078040
3C0780C0
3C0D8080
1C0B8180
1C1B8100
1C13C300
1C33C600
1C23C600
1C61CC00
1CC1CC00
1CC1D800
1F81D800
1F81F000
1F01F000
0F01E000
0E01E000
0E01C000
0C01C000
08018000
ENDCHAR

STARTCHAR X
ENCODING 88
SWIDTH 704 0
DWIDTH 23 0
BBX 28 24 -1 0
BITMAP
07FE1FF0
00F80780
00700700
00780600
00380C00
003C1800
003C3000
001C6000
001EC000
000F8000
000F0000
00070000
000F8000
001B8000
00338000
0023C000
0061C000
00C1E000
0181E000
0300E000
0600F000
0E007000
3F00F800
FFC7FF00
ENDCHAR

STARTCHAR Y
ENCODING 89
SWIDTH 685 0
DWIDTH 23 0
BBX 22 24 4 0
BITMAP
FFC1FC
3E0078
1C0060
1E0060
0E00C0
0F0180
070300
078200
078600
038C00
03D800
01D000
01F000
01E000
01E000
01C000
01C000
03C000
03C000
038000
038000
078000
078000
7FF000
ENDCHAR

STARTCHAR Z
ENCODING 90
SWIDTH 667 0
DWIDTH 22 0
BBX 23 24 1 0
BITMAP
03FFFE
03E03C
038078
0700F0
0601E0
0603E0
0C03C0
080780
000F00
001E00
003E00
007C00
007800
00F000
01E000
03C010
07C010
078020
0F0060
1E0060
3C01E0
7803C0
F00FC0
FFFFC0
ENDCHAR

STARTCHAR bracketleft
ENCODING 91
SWIDTH 333 0
DWIDTH 11 0
BBX 14 29 0 -5
BITMAP
00FC
01C0
01C0
01C0
0180
0380
0380
0380
0300
0700
0700
0600
0600
0E00
0E00
0C00
1C00
1C00
1C00
1800
3800
3800
3800
3000
7000
7000
6000
7000
FE00
ENDCHAR

STARTCHAR backslash
ENCODING 92
SWIDTH 606 0
DWIDTH 20 0
BBX 6 23 8 0
BITMAP
E0
60
60
60
60
60
60
70
70
30
30
30
30
30
30
38
38
18
18
18
18
18
1C
ENDCHAR

STARTCHAR bracketright
ENCODING 93
SWIDTH 333 0
DWIDTH 11 0
BBX 14 29 -2 -5
BITMAP
01FC
003C
0018
0038
0038
0030
0070
0070
0070
0060
00E0
00E0
00E0
00C0
01C0
01C0
0180
0180
0380
0380
0300
0700
0700
0700
0600
0E00
0E00
0C00
FC00
ENDCHAR

STARTCHAR asciicircum
ENCODING 94
SWIDTH 606 0
DWIDTH 20 0
BBX 15 12 4 11
BITMAP
0100
0180
0380
06C0
06C0
0C60
0C30
1830
3018
3018
600C
E006
ENDCHAR

STARTCHAR underscore
ENCODING 95
SWIDTH 500 0
DWIDTH 17 0
BBX 17 2 0 -4
BITMAP
FFFF80
FFFF80
ENDCHAR

STARTCHAR quoteleft
ENCODING 96
SWIDTH 204 0
DWIDTH 7 0
BBX 6 8 4 16
BITMAP
1C
30
60
C0
E0
F0
F0
60
ENDCHAR

STARTCHAR a
ENCODING 97
SWIDTH 574 0
DWIDTH 19 0
BBX 18 16 1 0
BITMAP
03E300
0E3700
1C1B00
380E00
300E00
700E00
700E00
E00C00
E01C00
E01C00
E018C0
E03880
605980
70DB00
3F9E00
0E1C00
ENDCHAR

STARTCHAR b
ENCODING 98
SWIDTH 556 0
DWIDTH 18 0
BBX 15 24 2 0
BITMAP
0700
3F00
0700
0600
0E00
0E00
0C00
1C00
1CF0
19F8
3E1C
3C0E
380E
380E
700E
700E
601E
E01C
E01C
E038
E038
6070
70C0
1F00
ENDCHAR

STARTCHAR c
ENCODING 99
SWIDTH 444 0
DWIDTH 15 0
BBX 13 16 1 0
BITMAP
01F0
0718
1C18
3838
3838
7030
7000
E000
E000
E000
E000
E000
E010
7020
38C0
1F80
ENDCHAR

STARTCHAR d
ENCODING 100
SWIDTH 611 0
DWIDTH 20 0
BBX 19 24 1 0
BITMAP
0001E0
000FC0
0001C0
0001C0
000180
000380
000380
000380
03E700
0E3700
1C1B00
380E00
380E00
700E00
700C00
F01C00
E01C00
E01800
E03840
E03880
607980
70D900
3F9E00
0E1C00
ENDCHAR

STARTCHAR e
ENCODING 101
SWIDTH 444 0
DWIDTH 15 0
BBX 13 16 1 0
BITMAP
03E0
0630
1C38
3838
3838
7070
7060
F1C0
EF00
F000
E000
E000
6030
7060
38C0
1F00
ENDCHAR

STARTCHAR f
ENCODING 102
SWIDTH 333 0
DWIDTH 11 0
BBX 16 29 -1 -5
BITMAP
000E
003F
0067
00E0
00C0
01C0
0180
0180
0FF0
0380
0300
0300
0700
0700
0600
0600
0E00
0E00
0E00
0C00
1C00
1C00
1C00
3800
3800
3800
7000
7000
E000
ENDCHAR

STARTCHAR g
ENCODING 103
SWIDTH 537 0
DWIDTH 18 0
BBX 19 23 -1 -6
BITMAP
0001E0
00FFE0
038660
070300
070380
0E0380
0E0380
0E0780
060700
030E00
0FF800
100000
300000
3C0000
3FF800
0FFE00
381E00
600600
C00600
C00600
E00C00
703800
1FC000
ENDCHAR

STARTCHAR h
ENCODING 104
SWIDTH 611 0
DWIDTH 20 0
BBX 18 24 1 0
BITMAP
01C000
0FC000
038000
038000
038000
038000
030000
070000
071C00
067E00
0EC700
0D8700
0F0700
1E0700
1C0600
1C0E00
180E00
380C00
381C40
301C40
701880
701980
601F00
800C00
ENDCHAR

STARTCHAR i
ENCODING 105
SWIDTH 333 0
DWIDTH 11 0
BBX 8 24 3 0
BITMAP
04
0E
0E
04
00
00
00
00
1C
FC
18
38
38
30
70
70
70
60
E3
E2
C6
CC
F8
60
ENDCHAR

STARTCHAR j
ENCODING 106
SWIDTH 315 0
DWIDTH 10 0
BBX 13 30 -3 -6
BITMAP
0030
0078
0078
0030
0000
0000
0000
0000
0070
03F0
0060
0060
00E0
00E0
00C0
00C0
01C0
01C0
0180
0180
0380
0380
0300
0300
0700
0600
E600
CC00
F800
7000
ENDCHAR

STARTCHAR k
ENCODING 107
SWIDTH 556 0
DWIDTH 18 0
BBX 17 24 1 0
BITMAP
03C000
0F8000
038000
038000
038000
030000
070000
070000
063E00
0E6700
0E8300
0D0300
0E0700
1E0600
1C0C00
1DF000
39C000
386000
307080
707180
707100
707200
E03C00
001000
ENDCHAR

STARTCHAR l
ENCODING 108
SWIDTH 333 0
DWIDTH 11 0
BBX 8 24 3 0
BITMAP
07
3F
07
06
06
0E
0E
0C
1C
1C
18
38
38
30
30
70
70
60
E2
E2
C4
CC
F8
60
ENDCHAR

STARTCHAR m
ENCODING 109
SWIDTH 889 0
DWIDTH 29 0
BBX 25 16 3 0
BITMAP
7E381800
1CFC7C00
1D0C8E00
1A0D0E00
1C0E0E00
1C1E0C00
381C0C00
381C1C00
30381C00
70381800
70383880
70303980
60703100
E0703200
E0603C00
80401800
ENDCHAR

STARTCHAR n
ENCODING 110
SWIDTH 611 0
DWIDTH 20 0
BBX 17 16 2 0
BITMAP
7E1800
1C7C00
0C8E00
1D0E00
1A0E00
1C0C00
3C0C00
381C00
381C00
301800
703880
703880
603100
E03300
E03E00
001800
ENDCHAR

STARTCHAR o
ENCODING 111
SWIDTH 500 0
DWIDTH 17 0
BBX 15 16 1 0
BITMAP
03E0
0E18
1C1C
380C
780E
700E
700E
E00E
E00E
E01C
E01C
E03C
6038
7070
38E0
0F80
ENDCHAR

STARTCHAR p
ENCODING 112
SWIDTH 574 0
DWIDTH 19 0
BBX 20 22 -2 -6
BITMAP
006780
07CFC0
00D0E0
01E070
01C070
01C070
018070
038070
0380F0
0300E0
0700E0
0701C0
0703C0
068780
0E7E00
0E3800
0C0000
1C0000
1C0000
1C0000
3C0000
FF0000
ENDCHAR

STARTCHAR q
ENCODING 113
SWIDTH 556 0
DWIDTH 18 0
BBX 16 22 1 -6
BITMAP
01E1
071B
1C1E
380E
380E
700E
700C
E01C
E01C
E018
E038
E038
E078
70B0
3F70
1E70
0060
00E0
00E0
00E0
01E0
07F8
ENDCHAR

STARTCHAR r
ENCODING 114
SWIDTH 444 0
DWIDTH 15 0
BBX 13 16 2 0
BITMAP
0670
7CF8
1D38
1D38
1E10
1A00
1C00
1C00
3800
3800
3800
7000
7000
7000
6000
E000
ENDCHAR

STARTCHAR s
ENCODING 115
SWIDTH 444 0
DWIDTH 15 0
BBX 12 16 1 0
BITMAP
07C0
0870
1070
3070
3070
3800
3E00
1F80
07E0
01E0
E0E0
E060
E060
C0C0
6180
3F00
ENDCHAR

STARTCHAR t
ENCODING 116
SWIDTH 352 0
DWIDTH 12 0
BBX 9 21 2 0
BITMAP
0700
0600
0E00
0E00
0C00
FF80
1C00
1C00
1800
3800
3800
3000
7000
7000
7000
6180
E100
E200
E600
7C00
3000
ENDCHAR

STARTCHAR u
ENCODING 117
SWIDTH 611 0
DWIDTH 20 0
BBX 17 16 3 0
BITMAP
1C0000
FC0E00
1C0E00
180C00
181C00
381C00
301800
303800
703800
607000
607180
E0B100
E16300
E26600
7C7C00
383000
ENDCHAR

STARTCHAR v
ENCODING 118
SWIDTH 519 0
DWIDTH 17 0
BBX 13 16 3 0
BITMAP
7830
F838
3838
3818
3018
7018
7010
6010
6010
E030
E020
E060
E040
6080
7300
3E00
ENDCHAR

STARTCHAR w
ENCODING 119
SWIDTH 778 0
DWIDTH 26 0
BBX 22 16 2 0
BITMAP
3E0008
7C0E1C
1C0E0C
1C0C0C
180C04
381C04
381C04
30180C
703808
703808
607810
E0D030
E0B820
E338C0
7E1F80
380E00
ENDCHAR

STARTCHAR x
ENCODING 120
SWIDTH 500 0
DWIDTH 17 0
BBX 17 16 0 0
BITMAP
0F0700
0F0F80
139B80
339100
21A000
01E000
01C000
01C000
01C000
01C000
034000
02E100
44E200
EC6600
F87C00
703000
ENDCHAR

STARTCHAR y
ENCODING 121
SWIDTH 500 0
DWIDTH 17 0
BBX 17 22 -1 -6
BITMAP
070380
0F0380
1B8380
118180
11C300
01C300
00C200
00C200
00E400
00E400
00E800
007800
007000
006000
006000
004000
00C000
008000
E10000
E30000
E60000
780000
ENDCHAR

STARTCHAR z
ENCODING 122
SWIDTH 463 0
DWIDTH 15 0
BBX 15 16 0 0
BITMAP
0382
0FF2
1BFE
307C
200C
0018
0070
01C0
0380
0E00
1800
3004
7F0C
7FF8
C7F0
41C0
ENDCHAR

STARTCHAR braceleft
ENCODING 123
SWIDTH 333 0
DWIDTH 11 0
BBX 13 30 3 -6
BITMAP
0078
0080
0100
0300
0700
0600
0E00
0E00
0E00
0E00
0C00
0C00
1800
3000
C000
C000
2000
3000
3000
3000
7000
7000
6000
E000
E000
C000
C000
C000
4000
3000
ENDCHAR

STARTCHAR bar
ENCODING 124
SWIDTH 606 0
DWIDTH 20 0
BBX 2 30 11 -6
BITMAP
C0
C0
C0
C0
C0
C0
C0
C0
C0
C0
C0
C0
C0
C0
C0
C0
C0
C0
C0
C0
C0
C0
C0
C0
C0
C0
C0
C0
C0
C0
ENDCHAR

STARTCHAR braceright
ENCODING 125
SWIDTH 333 0
DWIDTH 11 0
BBX 13 30 -2 -6
BITMAP
00C0
0020
0030
0030
0030
0030
0070
0060
00E0
00E0
00C0
00C0
00C0
0040
0038
0030
00C0
0180
0300
0300
0700
0700
0700
0700
0600
0600
0C00
0800
1000
E000
ENDCHAR

STARTCHAR asciitilde
ENCODING 126
SWIDTH 606 0
DWIDTH 20 0
BBX 17 5 3 9
BITMAP
3E0080
7F8080
C3E180
80FF00
801E00
ENDCHAR

STARTCHAR space
ENCODING 160
SWIDTH 278 0
DWIDTH 11 0
BBX 0 0 0 0
BITMAP
ENDCHAR

STARTCHAR Aogonek
ENCODING 161
SWIDTH 704 0
DWIDTH 23 0
BBX 25 30 -1 -6
BITMAP
0000C000
0000C000
0001C000
0003C000
0003E000
0006E000
0005E000
000CE000
0018E000
0010E000
0030E000
0060F000
0040F000
00C0F000
00807000
01FFF000
03007000
02007000
06007000
0C007800
0C007800
1C007800
7C007C00
FF03FF00
00002000
00006000
00006000
00007000
00003F80
00001E00
ENDCHAR

STARTCHAR breve
ENCODING 162
SWIDTH 333 0
DWIDTH 11 0
BBX 8 6 5 18
BITMAP
81
83
82
FE
7C
30
ENDCHAR

STARTCHAR Lslash
ENCODING 163
SWIDTH 667 0
DWIDTH 22 0
BBX 21 24 0 0
BITMAP
0FFF00
00F000
00F000
00E000
00E000
01E000
01E000
01C0C0
01C380
03DE00
03F000
03C000
0F8000
7B8000
478000
070000
0F0018
0F0010
0E0030
0E0070
1E0060
1E01E0
1E07E0
FFFFE0
ENDCHAR

STARTCHAR currency
ENCODING 164
SWIDTH 606 0
DWIDTH 20 0
BBX 17 17 2 2
BITMAP
200100
E7E380
7FFF00
3C1E00
380E00
300600
600300
600300
600300
600300
700300
300600
380E00
3C1E00
FFFB80
63E300
200100
ENDCHAR

STARTCHAR Lcaron
ENCODING 165
SWIDTH 667 0
DWIDTH 22 0
BBX 22 25 1 0
BITMAP
000018
0FFF3C
00F03C
00E03C
00E00C
01E008
01E018
01C0E0
01C040
03C000
038000
038000
078000
078000
070000
070000
0F0000
0F0010
0E0030
0E0030
1E0060
1E00E0
1C01E0
3E07E0
FFFFC0
ENDCHAR

STARTCHAR Sacute
ENCODING 166
SWIDTH 667 0
DWIDTH 22 0
BBX 21 33 2 -1
BITMAP
0000C0
0001C0
000380
000700
000C00
001800
000000
000000
007E00
01C398
0300F8
060070
060070
0E0030
0E0030
0E0030
0F0020
07C000
07F800
03FE00
00FF80
003FC0
000FC0
2003E0
2001E0
6000E0
6000E0
7000E0
7000C0
7801C0
EC0380
C70F00
01FC00
ENDCHAR

STARTCHAR section
ENCODING 167
SWIDTH 500 0
DWIDTH 17 0
BBX 16 30 1 -6
BITMAP
007E
00C3
0187
0107
0302
0300
0380
0380
01C0
01E0
06E0
0C70
1878
1838
1838
1C18
1C18
1E18
0E30
0F60
0780
0380
01C0
01C0
00C0
40C0
E0C0
E180
C300
3C00
ENDCHAR

STARTCHAR dieresis
ENCODING 168
SWIDTH 333 0
DWIDTH 11 0
BBX 9 3 4 18
BITMAP
E380
E380
E380
ENDCHAR

STARTCHAR Scaron
ENCODING 169
SWIDTH 667 0
DWIDTH 22 0
BBX 21 32 2 -1
BITMAP
00C0C0
002300
003A00
001E00
001C00
000000
000000
007E00
01C398
0300F8
060070
060070
0E0030
0E0030
0E0030
0F0020
07C000
07F800
03FE00
00FF80
003FC0
000FC0
2003E0
2001E0
6000E0
6000E0
7000E0
7000C0
7801C0
EC0380
C70F00
01FC00
ENDCHAR

STARTCHAR Scommaaccent
ENCODING 170
SWIDTH 667 0
DWIDTH 22 0
BBX 21 31 1 -7
BITMAP
007E00
01C398
0300F8
060070
060070
0E0030
0E0030
0E0030
0F0020
07C000
07F800
03FE00
00FF80
003FC0
000FC0
2003E0
2001E0
6000E0
6000E0
7000E0
7000C0
7801C0
EC0380
C70F00
01FC00
000000
018000
01C000
00C000
008000
030000
ENDCHAR

STARTCHAR Tcaron
ENCODING 171
SWIDTH 685 0
DWIDTH 23 0
BBX 23 32 3 0
BITMAP
004020
0020C0
001B80
001F00
000E00
000000
000000
000000
1FFFFE
1E3C3C
383C1C
303C0C
60380C
60380C
407808
C07808
807008
007000
00F000
00F000
00E000
00E000
01E000
01C000
01C000
03C000
03C000
038000
038000
078000
078000
7FF800
ENDCHAR

STARTCHAR Zacute
ENCODING 172
SWIDTH 667 0
DWIDTH 22 0
BBX 23 33 1 0
BITMAP
000040
0000E0
0001C0
000380
000700
000C00
000800
000000
000000
03FFFE
03E03C
038078
0700F0
0601E0
0403E0
0C03C0
080780
000F00
001E00
003E00
007C00
007800
00F000
01E000
03C010
07C030
078020
0F0060
1E0060
3C01E0
7803C0
F01FC0
FFFFC0
ENDCHAR

STARTCHAR hyphen
ENCODING 173
SWIDTH 333 0
DWIDTH 11 0
BBX 7 2 2 7
BITMAP
7E
FE
ENDCHAR

STARTCHAR Zcaron
ENCODING 174
SWIDTH 667 0
DWIDTH 22 0
BBX 23 32 1 0
BITMAP
001010
001860
000CC0
000780
000700
000000
000000
000000
03FFFE
03E03C
038078
0700F0
0601E0
0403E0
0C03C0
080780
000F00
001E00
003E00
007C00
007800
00F000
01E000
03C010
07C030
078020
0F0060
1E0060
3C01E0
7803C0
F01FC0
FFFFC0
ENDCHAR

STARTCHAR Zdotaccent
ENCODING 175
SWIDTH 667 0
DWIDTH 22 0
BBX 23 31 0 0
BITMAP
000700
000700
000700
000000
000000
000000
000000
01FFFE
01F03E
03C07C
038078
0300F0
0601E0
0403C0
0407C0
000780
000F00
001E00
003C00
007800
00F800
00F000
01E008
03C010
078030
0F0030
1F0060
1E00E0
3C01E0
780FE0
FFFFC0
ENDCHAR

STARTCHAR degree
ENCODING 176
SWIDTH 400 0
DWIDTH 13 0
BBX 10 10 4 13
BITMAP
1E00
3F00
6180
C0C0
C0C0
C0C0
C0C0
6180
7F80
1E00
ENDCHAR

STARTCHAR aogonek
ENCODING 177
SWIDTH 574 0
DWIDTH 19 0
BBX 17 22 1 -6
BITMAP
03E700
0E3700
1C1600
380E00
700E00
700C00
700C00
E01C00
E01C00
E01800
E03880
E03880
607100
70D300
3F9E00
0E3800
002000
006000
006000
007000
003F80
001E00
ENDCHAR

STARTCHAR ogonek
ENCODING 178
SWIDTH 333 0
DWIDTH 11 0
BBX 8 7 1 -6
BITMAP
40
40
C0
C0
E0
7F
3C
ENDCHAR

STARTCHAR lslash
ENCODING 179
SWIDTH 333 0
DWIDTH 11 0
BBX 11 24 1 0
BITMAP
0380
1F80
0380
0300
0300
0700
0700
0600
0E60
0E80
0E00
3C00
6C00
9C00
1800
3800
3800
3000
7100
7100
6200
6600
7C00
3000
ENDCHAR

STARTCHAR acute
ENCODING 180
SWIDTH 333 0
DWIDTH 11 0
BBX 7 6 6 18
BITMAP
04
0E
1C
38
70
C0
ENDCHAR

STARTCHAR lcaron
ENCODING 181
SWIDTH 380 0
DWIDTH 13 0
BBX 13 24 3 0
BITMAP
0730
3F78
0778
0618
0E30
0E60
0C80
0C00
1C00
1C00
1800
3800
3800
3000
3000
7000
7000
6000
E200
E200
C400
C800
F800
6000
ENDCHAR

STARTCHAR sacute
ENCODING 182
SWIDTH 444 0
DWIDTH 15 0
BBX 14 24 1 0
BITMAP
001C
003C
0078
00E0
00C0
0100
0000
0000
07E0
0C30
1838
3038
3038
3800
3E00
1FC0
0FE0
01F0
6070
E070
E070
C060
61C0
3F00
ENDCHAR

STARTCHAR caron
ENCODING 183
SWIDTH 333 0
DWIDTH 11 0
BBX 10 5 3 18
BITMAP
C0C0
6300
3E00
1E00
1C00
ENDCHAR

STARTCHAR commaaccent
ENCODING 184
SWIDTH 333 0
DWIDTH 11 0
BBX 4 5 3 -7
BITMAP
70
70
30
20
C0
ENDCHAR

STARTCHAR scaron
ENCODING 185
SWIDTH 444 0
DWIDTH 15 0
BBX 14 24 1 0
BITMAP
0804
0418
0730
03E0
01C0
0180
0000
0000
07E0
0C30
1838
3038
3038
3800
3E00
1FC0
0FE0
01F0
6070
E070
E070
C060
61C0
3F00
ENDCHAR

STARTCHAR scommaaccent
ENCODING 186
SWIDTH 444 0
DWIDTH 15 0
BBX 12 22 1 -6
BITMAP
07C0
1830
1070
3070
3070
3800
3E00
1F80
0FE0
01E0
E0E0
E060
E060
C0C0
6180
3F00
0000
1800
1C00
1C00
0C00
3000
ENDCHAR

STARTCHAR tcaron
ENCODING 187
SWIDTH 427 0
DWIDTH 14 0
BBX 15 25 2 0
BITMAP
001E
001E
000E
0004
0708
0630
0E00
0E00
0C00
FF80
1C00
1C00
1800
3800
3800
3000
7000
7000
7000
6180
E100
E200
E600
7C00
3000
ENDCHAR

STARTCHAR zacute
ENCODING 188
SWIDTH 463 0
DWIDTH 15 0
BBX 15 25 0 0
BITMAP
0006
000E
001E
003C
0030
0040
0080
0000
0000
07C2
0FFE
187C
300C
2018
0030
00E0
03C0
0700
0C00
1004
2004
7F0C
7FF8
C7F0
40C0
ENDCHAR

STARTCHAR hungarumlaut
ENCODING 189
SWIDTH 333 0
DWIDTH 11 0
BBX 13 6 3 18
BITMAP
0618
0E38
1E78
3CF0
31C0
C300
ENDCHAR

STARTCHAR zcaron
ENCODING 190
SWIDTH 463 0
DWIDTH 15 0
BBX 15 24 0 0
BITMAP
0202
010C
01D8
00F0
00E0
0000
0000
0000
07C2
0FFE
187C
300C
2018
0030
00E0
03C0
0700
0C00
1004
2004
7F0C
7FF8
C7F0
40C0
ENDCHAR

STARTCHAR zdotaccent
ENCODING 191
SWIDTH 463 0
DWIDTH 15 0
BBX 15 23 0 0
BITMAP
0070
0070
0070
0000
0000
0000
0000
07C2
0FFE
107C
200C
2018
0030
00E0
0380
0700
0C00
1004
2004
7F08
7FF8
C7F0
80C0
ENDCHAR

STARTCHAR Racute
ENCODING 192
SWIDTH 741 0
DWIDTH 24 0
BBX 24 32 0 0
BITMAP
0000E0
0001E0
0001C0
000300
000600
000800
000000
000000
07FFF0
00F83C
00700E
00F00F
00F00F
00E00F
00E00F
01E00F
01C01E
01C03C
03C0F0
03FF00
038380
0381C0
0780E0
0780E0
0700E0
0700E0
0F01E0
0F01E2
0E01E2
0E01E4
1E00F8
FFE070
ENDCHAR

STARTCHAR Aacute
ENCODING 193
SWIDTH 704 0
DWIDTH 23 0
BBX 24 32 -1 0
BITMAP
00000C
00001C
000038
000070
0000C0
000100
000000
000000
0000C0
0000C0
0001C0
0003C0
0003C0
0006E0
000DE0
000DE0
0018E0
0010E0
0030E0
0060E0
0040F0
00C0F0
0180F0
01FFF0
030070
020070
060070
0C0070
0C0078
180078
7C0078
FF03FF
ENDCHAR

STARTCHAR Acircumflex
ENCODING 194
SWIDTH 704 0
DWIDTH 23 0
BBX 24 32 -1 0
BITMAP
000040
0000E0
0001F0
000330
000418
000804
000000
000000
0000C0
0000C0
0001C0
0003C0
0003C0
0006E0
000DE0
000DE0
0018E0
0010E0
0030E0
0060E0
0040F0
00C0F0
0180F0
01FFF0
030070
020070
060070
0C0070
0C0078
180078
7C0078
FF03FF
ENDCHAR

STARTCHAR Abreve
ENCODING 195
SWIDTH 704 0
DWIDTH 23 0
BBX 24 32 -1 0
BITMAP
000204
00020C
000218
0003F8
0001F0
0000C0
000000
000000
0000C0
0000C0
0001C0
0003C0
0003C0
0006E0
000DE0
000DE0
0018E0
0010E0
0030E0
0060E0
0040F0
00C0F0
0180F0
01FFF0
030070
020070
060070
0C0070
0C0078
180078
7C0078
FF03FF
ENDCHAR

STARTCHAR Adieresis
ENCODING 196
SWIDTH 704 0
DWIDTH 23 0
BBX 24 30 -1 0
BITMAP
00071C
00071C
00071C
000000
000000
000000
0000C0
0000C0
0001C0
0003C0
0003C0
0006C0
000DE0
000DE0
0018E0
0010E0
0030E0
0060E0
0040E0
00C0E0
0180F0
01FFF0
030070
020070
060070
0C0070
0C0070
1C0078
7C0078
FF03FF
ENDCHAR

STARTCHAR Lacute
ENCODING 197
SWIDTH 667 0
DWIDTH 22 0
BBX 20 33 1 0
BITMAP
000080
0001C0
000380
000700
000E00
003800
001000
000000
000000
0FFF00
00F000
00E000
00E000
01E000
01E000
01C000
01C000
03C000
03C000
038000
038000
078000
078000
070000
070000
0F0010
0F0030
0E0030
1E0060
1E00E0
1C01E0
3E07E0
FFFFC0
ENDCHAR

STARTCHAR Cacute
ENCODING 198
SWIDTH 722 0
DWIDTH 24 0
BBX 22 32 3 0
BITMAP
0000C0
0001C0
0003C0
000780
000600
001800
000000
000000
003F00
01E0CC
03806C
070038
0E0038
1E0018
3C0018
3C0018
780010
780000
780000
F00000
F00000
F00000
F00000
F00000
F00000
700020
700060
780040
380080
1C0180
0F0E00
03F800
ENDCHAR

STARTCHAR Ccedilla
ENCODING 199
SWIDTH 722 0
DWIDTH 24 0
BBX 22 30 3 -6
BITMAP
007F00
01E1CC
038068
070038
0E0038
1E0038
3C0018
3C0010
780010
780000
780000
F00000
F00000
F00000
F00000
F00000
F00000
700020
700040
7800C0
380180
1C0300
0F0E00
03F800
00C000
01E000
00E000
00E000
03C000
0F0000
ENDCHAR

STARTCHAR Ccaron
ENCODING 200
SWIDTH 722 0
DWIDTH 24 0
BBX 22 31 3 0
BITMAP
002060
0010C0
001D80
000F00
000600
000000
000000
003F00
01E0CC
03806C
070038
0E0038
1E0018
3C0018
3C0018
780010
780000
780000
F00000
F00000
F00000
F00000
F00000
F00000
700020
700060
780040
380080
1C0180
0F0E00
03F800
ENDCHAR

STARTCHAR Eacute
ENCODING 201
SWIDTH 722 0
DWIDTH 24 0
BBX 24 33 1 0
BITMAP
000020
0000E0
0001E0
0003C0
000300
000600
000800
000000
000000
0FFFFF
00F01E
00F00E
00E006
00E006
01E004
01C004
01C084
03C180
03C380
038700
03FF00
078F00
078700
070600
070200
0F060C
0F0408
0E0018
0E0030
1E0070
1E00F0
3E03F0
FFFFE0
ENDCHAR

STARTCHAR Eogonek
ENCODING 202
SWIDTH 722 0
DWIDTH 24 0
BBX 24 30 1 -6
BITMAP
0FFFFF
00F01E
00F00E
00E006
00E006
01E004
01C004
01C084
03C180
03C380
038700
03FF00
078F00
078600
070600
070200
0F060C
0F0408
0E0018
0E0030
1E0070
1E00F0
3E03E0
FFFFE0
000200
000600
000600
000700
0003F8
0001E0
ENDCHAR

STARTCHAR Edieresis
ENCODING 203
SWIDTH 722 0
DWIDTH 24 0
BBX 24 31 1 0
BITMAP
0038E0
0038E0
0038E0
000000
000000
000000
000000
07FFFF
00F01E
00F00E
00F006
00E004
00E004
01E004
01C084
01C180
01C100
03C700
03FF00
038F00
078700
078200
070200
07020C
0F0618
0F0018
0E0030
0E0070
1E00F0
1E03E0
FFFFE0
ENDCHAR

STARTCHAR Ecaron
ENCODING 204
SWIDTH 722 0
DWIDTH 24 0
BBX 24 32 1 0
BITMAP
001018
000820
000EE0
0007C0
000380
000000
000000
000000
0FFFFF
00F01E
00F00E
00E006
00E006
01E004
01C004
01C084
03C180
03C380
038700
03FF00
078F00
078700
070600
070200
0F060C
0F0408
0E0018
0E0030
1E0070
1E00F0
3E03F0
FFFFE0
ENDCHAR

STARTCHAR Iacute
ENCODING 205
SWIDTH 407 0
DWIDTH 13 0
BBX 16 33 0 0
BITMAP
0002
0007
000E
001E
0038
0060
0040
0000
0000
07FF
0078
0078
0070
0070
00F0
00F0
00E0
00E0
01E0
01E0
01C0
01C0
03C0
0380
0380
0380
0780
0700
0700
0F00
0F00
1F00
FFE0
ENDCHAR

STARTCHAR Icircumflex
ENCODING 206
SWIDTH 407 0
DWIDTH 13 0
BBX 16 32 0 0
BITMAP
0018
003C
007C
00C6
0383
0000
0000
0000
07FF
0078
0078
0070
0070
00F0
00F0
00E0
00E0
01E0
01E0
01C0
01C0
03C0
0380
0380
0380
0780
0700
0700
0F00
0F00
1F00
FFE0
ENDCHAR

STARTCHAR Dcaron
ENCODING 207
SWIDTH 778 0
DWIDTH 26 0
BBX 26 32 0 0
BITMAP
00101800
00086000
000CC000
00078000
00070000
00000000
00000000
00000000
07FFF000
00781C00
00700E00
00700700
00F00380
00F00380
00E003C0
00E003C0
01E003C0
01E003C0
01C003C0
03C003C0
03C003C0
03800780
03800780
07800780
07800F00
07000F00
07001E00
0F001C00
0F003C00
0E007000
1F03E000
FFFF0000
ENDCHAR

STARTCHAR Dcroat
ENCODING 208
SWIDTH 778 0
DWIDTH 26 0
BBX 26 24 0 0
BITMAP
07FFF000
00781C00
00700600
00700700
00F00380
00F00380
00E003C0
01E003C0
01E003C0
01C003C0
01C003C0
3FFC03C0
03C003C0
03800780
03800780
07800780
07800F00
07000F00
07001E00
0F003C00
0F003800
0E00F000
1F03E000
FFFF0000
ENDCHAR

STARTCHAR Nacute
ENCODING 209
SWIDTH 815 0
DWIDTH 27 0
BBX 30 33 0 0
BITMAP
00000400
00000C00
00001C00
00003800
00007000
0000C000
00010000
00000000
00000000
07F807FC
00F801F0
007C0060
005C00C0
00DE00C0
00DE00C0
008E0080
008F0080
01870180
01878180
01038100
0303C300
0303C300
0301E300
0201E200
0600E600
0600F600
06007400
04007C00
0C003C00
0C003C00
1C003800
3E001800
FFC01800
ENDCHAR

STARTCHAR Ncaron
ENCODING 210
SWIDTH 815 0
DWIDTH 27 0
BBX 30 32 0 0
BITMAP
00030100
00018600
0000CC00
0000F800
00007000
00000000
00000000
00000000
07F807FC
00F801F0
007C0060
005C00C0
00DE00C0
00DE00C0
008E0080
008F0080
01870180
01878180
01038100
0303C300
0303C300
0301E300
0201E200
0600E600
0600F600
06007400
04007C00
0C003C00
0C003C00
1C003800
3E001800
FFC01800
ENDCHAR

STARTCHAR Oacute
ENCODING 211
SWIDTH 778 0
DWIDTH 26 0
BBX 23 32 3 0
BITMAP
000040
0000E0
0001C0
000380
000600
000C00
000000
000000
003F80
00E0E0
03C030
070038
0F001C
1E001C
1C001E
3C001E
38001E
78001E
78001E
70001E
F0003C
F0003C
F0003C
F00038
F00078
700070
7000F0
7001E0
3801C0
180780
0E1E00
03F000
ENDCHAR

STARTCHAR Ocircumflex
ENCODING 212
SWIDTH 778 0
DWIDTH 26 0
BBX 23 31 3 0
BITMAP
000380
000780
000EC0
001840
002020
000000
000000
003F80
00E0E0
03C030
070038
0F001C
1E001C
1C001E
3C001E
38001E
78001E
78001E
70001E
F0003C
F0003C
F0003C
F00038
F00078
700070
7000F0
7001E0
3801C0
180780
0E1E00
03F000
ENDCHAR

STARTCHAR Ohungarumlaut
ENCODING 213
SWIDTH 778 0
DWIDTH 26 0
BBX 23 32 3 0
BITMAP
000308
00071C
000F38
001C70
0038E0
006180
000000
000000
003F80
00E0E0
03C030
070038
0F001C
1E001C
1C001E
3C001E
38001E
78001E
78001E
70001E
F0003C
F0003C
F0003C
F00038
F00078
700070
7000F0
7001E0
3801C0
180780
0E1E00
03F000
ENDCHAR

STARTCHAR Odieresis
ENCODING 214
SWIDTH 778 0
DWIDTH 26 0
BBX 23 30 3 0
BITMAP
001C70
001C70
001C70
000000
000000
000000
003F80
00F0E0
03C030
078038
0F001C
1E001C
1C001E
3C001E
38001E
78001E
78001E
78001E
F0001C
F0003C
F0003C
F00038
F00078
700070
7000F0
7000E0
3801C0
180780
0E0E00
03F800
ENDCHAR

STARTCHAR multiply
ENCODING 215
SWIDTH 606 0
DWIDTH 20 0
BBX 17 16 3 3
BITMAP
E00380
700700
380E00
1C1C00
0E3800
077000
03E000
01C000
03E000
077000
0E3800
1C1C00
380E00
700700
E00380
400100
ENDCHAR

STARTCHAR Rcaron
ENCODING 216
SWIDTH 741 0
DWIDTH 24 0
BBX 24 32 0 0
BITMAP
001018
000830
0006E0
0007C0
000380
000000
000000
000000
07FFF0
00F83C
00700E
00F00F
00F00F
00E00F
00E00F
01E00F
01C01E
01C03C
03C0F0
03FF00
038380
0381C0
0780E0
0780E0
0700E0
0700E0
0F01E0
0F01E2
0E01E2
0E01E4
1E00F8
FFE070
ENDCHAR

STARTCHAR Uring
ENCODING 217
SWIDTH 815 0
DWIDTH 27 0
BBX 25 32 5 0
BITMAP
000F0000
00198000
00108000
00108000
00198000
000F0000
00000000
00000000
FFE0FF80
0E003C00
1E001800
1E001800
1C001800
1C001000
3C001000
3C003000
38003000
38002000
78002000
78006000
70004000
F0004000
F0004000
E000C000
E0008000
E0008000
E0018000
E0010000
F0030000
78060000
3E1C0000
0FF00000
ENDCHAR

STARTCHAR Uacute
ENCODING 218
SWIDTH 815 0
DWIDTH 27 0
BBX 25 33 5 0
BITMAP
00004000
0000E000
0001C000
00038000
00070000
000C0000
00080000
00000000
00000000
FFE0FF80
0F001E00
1E001C00
1E000800
1C000800
1C001800
3C001800
3C001000
38001000
38003000
78003000
78002000
70002000
F0006000
F0004000
E0004000
E0004000
E000C000
E0008000
E0018000
F0030000
78060000
3E1C0000
0FF00000
ENDCHAR

STARTCHAR Uhungarumlaut
ENCODING 219
SWIDTH 815 0
DWIDTH 27 0
BBX 25 33 5 0
BITMAP
00008200
00038E00
00079E00
00073C00
000C3000
00186000
00208000
00000000
00000000
FFE0FF80
0F001E00
1E001C00
1E000800
1C000800
1C001800
3C001800
3C001000
38001000
38003000
78003000
78002000
70002000
F0006000
F0004000
E0004000
E0004000
E000C000
E0008000
E0018000
F0030000
78060000
3E1C0000
0FF00000
ENDCHAR

STARTCHAR Udieresis
ENCODING 220
SWIDTH 815 0
DWIDTH 27 0
BBX 25 31 5 0
BITMAP
001C7000
001C7000
001C7000
00000000
00000000
00000000
00000000
FFE0FF80
1F001E00
0E001C00
1E000800
1E000800
1C001800
3C001800
3C001000
3C001000
38003000
78003000
78002000
70002000
F0006000
F0006000
F0004000
E0004000
E000C000
E0008000
F0018000
F0030000
78060000
3E1C0000
0FF00000
ENDCHAR

STARTCHAR Yacute
ENCODING 221
SWIDTH 685 0
DWIDTH 23 0
BBX 22 33 4 0
BITMAP
000100
000380
000700
000E00
001C00
003000
002000
000000
000000
FFC1FC
3E0078
1C0060
1E0060
0E00C0
0F0180
070300
078200
078600
038C00
03D800
01D000
01F000
01E000
01E000
01C000
01C000
03C000
03C000
038000
038000
078000
078000
7FF000
ENDCHAR

STARTCHAR Tcommaaccent
ENCODING 222
SWIDTH 685 0
DWIDTH 23 0
BBX 23 31 3 -7
BITMAP
1FFFFE
1E3E1E
381C0C
303C0C
303C0C
60380C
40380C
407808
807808
007000
007000
00F000
00F000
00E000
00E000
01E000
01C000
01C000
03C000
03C000
038000
038000
078000
7FF800
000000
000000
070000
070000
030000
020000
0C0000
ENDCHAR

STARTCHAR germandbls
ENCODING 223
SWIDTH 556 0
DWIDTH 18 0
BBX 21 30 -2 -6
BITMAP
0007C0
001C70
003830
003038
007038
00E038
00E038
00C070
01C0E0
01C1C0
018E00
038380
0380C0
0300C0
0700E0
0700E0
0700E0
0600E0
0E01E0
0EE1C0
0CE3C0
1C8780
1CCF00
1C7C00
380000
380000
380000
700000
700000
E00000
ENDCHAR

STARTCHAR racute
ENCODING 224
SWIDTH 444 0
DWIDTH 15 0
BBX 14 25 2 0
BITMAP
0008
001C
0038
0070
00E0
0180
0100
0000
0000
FCF0
3DB8
1B78
1A30
1C00
1C00
3800
3800
3800
7000
7000
7000
6000
E000
E000
8000
ENDCHAR

STARTCHAR aacute
ENCODING 225
SWIDTH 574 0
DWIDTH 19 0
BBX 18 24 1 0
BITMAP
000700
000F00
000E00
001800
003000
004000
000000
000000
03E300
0E3700
1C1B00
380E00
300E00
700E00
700E00
E00C00
E01C00
E01C00
E018C0
E03880
605980
70DB00
3F9E00
0E1C00
ENDCHAR

STARTCHAR acircumflex
ENCODING 226
SWIDTH 574 0
DWIDTH 19 0
BBX 18 24 1 0
BITMAP
003000
007800
007C00
00CC00
030300
000000
000000
000000
03E300
0E3700
1C1B00
380E00
300E00
700E00
700E00
E00C00
E01C00
E01C00
E018C0
E03880
605980
70DB00
3F9E00
0E1C00
ENDCHAR

STARTCHAR abreve
ENCODING 227
SWIDTH 574 0
DWIDTH 19 0
BBX 18 24 1 0
BITMAP
008100
008300
008600
00FE00
007C00
003000
000000
000000
03E300
0E3700
1C1B00
380E00
300E00
700E00
700E00
E00C00
E01C00
E01C00
E018C0
E03880
605980
70DB00
3F9E00
0E1C00
ENDCHAR

STARTCHAR adieresis
ENCODING 228
SWIDTH 574 0
DWIDTH 19 0
BBX 17 23 1 0
BITMAP
01C700
01C700
01C700
000000
000000
000000
000000
03E300
0E3700
1C1A00
380E00
300E00
700E00
700C00
E00C00
E01C00
E01800
E01880
E03880
605900
70DB00
3F9E00
0E1C00
ENDCHAR

STARTCHAR lacute
ENCODING 229
SWIDTH 333 0
DWIDTH 11 0
BBX 12 32 3 0
BITMAP
0010
0070
00F0
01E0
0180
0300
0400
0000
0700
3F00
0700
0600
0600
0E00
0E00
0C00
1C00
1C00
1800
3800
3800
3000
3000
7000
7000
6000
E200
E200
C400
CC00
F800
6000
ENDCHAR

STARTCHAR cacute
ENCODING 230
SWIDTH 444 0
DWIDTH 15 0
BBX 14 24 1 0
BITMAP
001C
001C
0038
0070
00C0
0100
0000
0000
01F0
0718
1C18
3838
3838
7030
7000
E000
E000
E000
E000
E000
E010
7020
38C0
1F80
ENDCHAR

STARTCHAR ccedilla
ENCODING 231
SWIDTH 444 0
DWIDTH 15 0
BBX 12 22 1 -6
BITMAP
03E0
0E30
1C30
3870
3070
7060
6000
E000
E000
E000
E000
E000
E020
7040
3980
1F00
0C00
1E00
0E00
0E00
3C00
E000
ENDCHAR

STARTCHAR ccaron
ENCODING 232
SWIDTH 444 0
DWIDTH 15 0
BBX 14 24 1 0
BITMAP
0804
0608
0330
03E0
01C0
00C0
0000
0000
01F0
0718
1C18
3838
3838
7030
7000
E000
E000
E000
E000
E000
E010
7020
38C0
1F80
ENDCHAR

STARTCHAR eacute
ENCODING 233
SWIDTH 444 0
DWIDTH 15 0
BBX 14 24 1 0
BITMAP
001C
003C
0078
00E0
00C0
0100
0000
0000
03E0
0630
1C38
1838
3838
7070
7060
F1C0
EF00
F000
E000
E000
6030
7060
38C0
1F00
ENDCHAR

STARTCHAR eogonek
ENCODING 234
SWIDTH 444 0
DWIDTH 15 0
BBX 13 22 1 -6
BITMAP
01E0
0630
0C38
1838
3838
7030
7060
F1C0
EF00
F000
E000
E000
6030
7060
38C0
1F00
0400
0C00
0C00
0E00
07F0
03C0
ENDCHAR

STARTCHAR edieresis
ENCODING 235
SWIDTH 444 0
DWIDTH 15 0
BBX 14 23 1 0
BITMAP
071C
071C
071C
0000
0000
0000
0000
01E0
0630
0C38
1838
3838
7030
7060
F1C0
F700
F000
E000
E000
6030
7060
38C0
1F80
ENDCHAR

STARTCHAR ecaron
ENCODING 236
SWIDTH 444 0
DWIDTH 15 0
BBX 14 24 1 0
BITMAP
0804
0418
0330
03E0
01C0
0180
0000
0000
03E0
0630
1C38
1838
3838
7070
7060
F1C0
EF00
F000
E000
E000
6030
7060
38C0
1F00
ENDCHAR

STARTCHAR iacute
ENCODING 237
SWIDTH 333 0
DWIDTH 11 0
BBX 11 24 3 0
BITMAP
0060
00E0
01C0
0380
0600
0C00
0000
0000
1C00
FC00
1800
3800
3800
3000
3000
7000
7000
6000
E100
E200
C600
CC00
F800
6000
ENDCHAR

STARTCHAR icircumflex
ENCODING 238
SWIDTH 333 0
DWIDTH 11 0
BBX 10 24 3 0
BITMAP
0200
0700
0F00
1980
20C0
4040
0000
0000
1C00
FC00
1800
3800
3800
3000
3000
7000
7000
6000
E100
E200
C600
CC00
F800
6000
ENDCHAR

STARTCHAR dcaron
ENCODING 239
SWIDTH 655 0
DWIDTH 22 0
BBX 24 24 1 0
BITMAP
0000E6
0007EF
0000CF
0001C2
0001C4
000198
000380
000380
03E380
0F3700
1C0B00
380F00
380E00
700E00
700E00
E00C00
E01C00
E01C00
E03840
E038C0
607880
70D900
3F9E00
0E0C00
ENDCHAR

STARTCHAR dcroat
ENCODING 240
SWIDTH 611 0
DWIDTH 20 0
BBX 20 25 1 0
BITMAP
000FE0
0001C0
0001C0
0001C0
000180
007FF0
000380
000380
000300
03E700
0F3700
1C1A00
380E00
380E00
700E00
700C00
E01C00
E01C00
E01800
E03840
E03880
607980
70D900
3F9E00
0E1C00
ENDCHAR

STARTCHAR nacute
ENCODING 241
SWIDTH 611 0
DWIDTH 20 0
BBX 17 24 2 0
BITMAP
000700
000700
000E00
001C00
003000
006000
000000
000000
7E1800
1C7C00
0C8E00
1D0E00
1A0E00
1C0C00
3C0C00
381C00
381C00
301800
703880
703880
703180
603100
E03600
E03C00
ENDCHAR

STARTCHAR ncaron
ENCODING 242
SWIDTH 611 0
DWIDTH 20 0
BBX 17 24 2 0
BITMAP
010100
010200
00CC00
00F800
007800
003000
000000
000000
7E1800
1C7C00
0C8E00
1D0E00
1A0E00
1C0C00
3C0C00
381C00
381C00
301800
703880
703880
703180
603100
E03600
E03C00
ENDCHAR

STARTCHAR oacute
ENCODING 243
SWIDTH 500 0
DWIDTH 17 0
BBX 15 24 1 0
BITMAP
000E
001E
003C
0038
0060
0080
0000
0000
03E0
0E38
1C1C
380C
780E
700E
700E
E00E
E00E
E01C
E01C
E03C
6038
7070
38E0
0F80
ENDCHAR

STARTCHAR ocircumflex
ENCODING 244
SWIDTH 500 0
DWIDTH 17 0
BBX 15 24 1 0
BITMAP
0060
00F0
01F8
0398
060C
0804
0000
0000
03E0
0E38
1C1C
380C
780E
700E
700E
E00E
E00E
E01C
E01C
E03C
6038
7070
38E0
0F80
ENDCHAR

STARTCHAR ohungarumlaut
ENCODING 245
SWIDTH 500 0
DWIDTH 17 0
BBX 18 24 1 0
BITMAP
0070C0
0071C0
00E380
01C700
030C00
041000
000000
000000
03E000
0E3800
1C1C00
380C00
780E00
700E00
700E00
E00E00
E00E00
E01C00
E01C00
E03C00
603800
707000
38E000
0F8000
ENDCHAR

STARTCHAR odieresis
ENCODING 246
SWIDTH 500 0
DWIDTH 17 0
BBX 14 23 1 0
BITMAP
071C
071C
071C
0000
0000
0000
0000
03E0
0E30
1C18
3818
701C
701C
701C
E01C
E01C
E038
E038
E038
6070
60E0
31C0
0F00
ENDCHAR

STARTCHAR divide
ENCODING 247
SWIDTH 606 0
DWIDTH 20 0
BBX 17 16 3 3
BITMAP
01C000
01C000
01C000
000000
000000
000000
000000
FFFF80
FFFF80
000000
000000
000000
000000
01C000
01C000
01C000
ENDCHAR

STARTCHAR rcaron
ENCODING 248
SWIDTH 444 0
DWIDTH 15 0
BBX 14 24 2 0
BITMAP
080C
0410
0370
03E0
01C0
0000
0000
0000
FCF0
3DB8
1B78
1A30
1C00
1C00
3800
3800
3800
7000
7000
7000
6000
E000
E000
8000
ENDCHAR

STARTCHAR uring
ENCODING 249
SWIDTH 611 0
DWIDTH 20 0
BBX 16 24 3 0
BITMAP
0078
00CC
0084
0084
0084
00CC
0078
0000
0C00
FC0E
1C0E
180C
181C
381C
3018
3038
7038
6070
6070
E0B1
E163
E262
7C74
3878
ENDCHAR

STARTCHAR uacute
ENCODING 250
SWIDTH 611 0
DWIDTH 20 0
BBX 17 24 3 0
BITMAP
000700
000E00
001E00
003800
003000
004000
000000
000000
0C0000
FC0E00
1C0E00
180C00
181C00
381C00
301800
303800
703800
607000
607000
E0B180
E16300
E26200
7C7400
387800
ENDCHAR

STARTCHAR uhungarumlaut
ENCODING 251
SWIDTH 611 0
DWIDTH 20 0
BBX 19 24 3 0
BITMAP
0038C0
0079E0
0073C0
00E300
018600
020800
000000
000000
0C0000
FC0E00
1C0E00
180C00
181C00
381C00
301800
303800
703800
607000
607000
E0B180
E16300
E26200
7C7400
387800
ENDCHAR

STARTCHAR udieresis
ENCODING 252
SWIDTH 611 0
DWIDTH 20 0
BBX 17 22 2 0
BITMAP
01C700
01C700
01C700
000000
000000
000000
0E0000
FC0700
1C0600
1C0600
180E00
380C00
380C00
301C00
701800
703800
603800
E05080
E0B100
E33300
7E3600
383C00
ENDCHAR

STARTCHAR yacute
ENCODING 253
SWIDTH 500 0
DWIDTH 17 0
BBX 17 30 -1 -6
BITMAP
000700
000F00
001E00
003800
002000
004000
000000
000000
070380
0F0380
1B8380
118380
11C300
01C300
00C200
00C200
00E400
00E400
00E800
007800
007000
006000
006000
004000
00C000
008000
E10000
E30000
E60000
780000
ENDCHAR

STARTCHAR tcommaaccent
ENCODING 254
SWIDTH 352 0
DWIDTH 12 0
BBX 10 27 1 -6
BITMAP
0380
0300
0700
0700
0600
7FC0
0E00
0E00
0C00
1C00
1C00
1800
3800
3800
3800
30C0
7080
7100
7300
3E00
1800
0000
7000
7000
3000
2000
C000
ENDCHAR

STARTCHAR dotaccent
ENCODING 255
SWIDTH 333 0
DWIDTH 11 0
BBX 3 3 7 19
BITMAP
E0
E0
E0
ENDCHAR
ENDFONT
